<svg width="1500" height="300" viewBox="0 0 456 93" fill="none" xmlns="http://www.w3.org/2000/svg">
<path d="M0.248 1.39999H21.496C28.7493 1.39999 34.04 3.10666 37.368 6.52C40.696 9.84799 42.36 15.0107 42.36 22.008V25.592C42.36 30.2 41.592 33.9547 40.056 36.856C38.6053 39.7573 36.344 41.848 33.272 43.128V43.384C40.2693 45.7733 43.768 52.0027 43.768 62.072V69.752C43.768 76.664 41.9333 81.9547 38.264 85.624C34.68 89.208 29.3893 91 22.392 91H0.248V1.39999ZM19.832 37.88C22.648 37.88 24.7387 37.1547 26.104 35.704C27.5547 34.2533 28.28 31.8213 28.28 28.408V23.416C28.28 20.1733 27.6827 17.8267 26.488 16.376C25.3787 14.9253 23.5867 14.2 21.112 14.2H14.328V37.88H19.832ZM22.392 78.2C24.8667 78.2 26.7013 77.56 27.896 76.28C29.0907 74.9147 29.688 72.6107 29.688 69.368V61.56C29.688 57.464 28.9627 54.648 27.512 53.112C26.1467 51.4907 23.8427 50.68 20.6 50.68H14.328V78.2H22.392ZM51.998 1.39999H66.078V91H51.998V1.39999ZM87.631 14.2H72.911V1.39999H116.431V14.2H101.711V91H87.631V14.2ZM141.552 92.28C134.725 92.28 129.563 90.36 126.064 86.52C122.565 82.5947 120.816 77.0053 120.816 69.752V64.632H134.128V70.776C134.128 76.5787 136.56 79.48 141.424 79.48C143.813 79.48 145.605 78.7973 146.8 77.432C148.08 75.9813 148.72 73.6773 148.72 70.52C148.72 66.7653 147.867 63.48 146.16 60.664C144.453 57.7627 141.296 54.3067 136.688 50.296C130.885 45.176 126.832 40.568 124.528 36.472C122.224 32.2907 121.072 27.5973 121.072 22.392C121.072 15.3093 122.864 9.848 126.448 6.008C130.032 2.08266 135.237 0.119995 142.064 0.119995C148.805 0.119995 153.883 2.08266 157.296 6.008C160.795 9.848 162.544 15.3947 162.544 22.648V26.36H149.232V21.752C149.232 18.68 148.635 16.4613 147.44 15.096C146.245 13.6453 144.496 12.92 142.192 12.92C137.499 12.92 135.152 15.7787 135.152 21.496C135.152 24.7387 136.005 27.768 137.712 30.584C139.504 33.4 142.704 36.8133 147.312 40.824C153.2 45.944 157.253 50.5947 159.472 54.776C161.691 58.9573 162.8 63.864 162.8 69.496C162.8 76.8347 160.965 82.4667 157.296 86.392C153.712 90.3173 148.464 92.28 141.552 92.28ZM170.617 81.272C170.617 74.872 171.641 69.4107 173.689 64.888C175.737 60.28 179.406 55.2027 184.697 49.656C189.902 44.1093 193.486 39.3733 195.449 35.448C197.497 31.5227 198.521 27.4267 198.521 23.16C198.521 19.32 197.881 16.6747 196.601 15.224C195.406 13.688 193.614 12.92 191.225 12.92C186.361 12.92 183.929 15.864 183.929 21.752V31.352H170.617V22.648C170.617 15.3947 172.409 9.848 175.993 6.008C179.577 2.08266 184.782 0.119995 191.609 0.119995C198.436 0.119995 203.641 2.08266 207.225 6.008C210.809 9.848 212.601 15.3947 212.601 22.648C212.601 28.1093 211.278 33.4427 208.633 38.648C206.073 43.8533 201.593 49.8267 195.193 56.568C191.012 61.0053 188.196 64.632 186.745 67.448C185.294 70.1787 184.569 73.1227 184.569 76.28V78.2H211.321V91H170.617V81.272ZM222.123 1.39999H243.371C250.624 1.39999 255.915 3.10666 259.243 6.52C262.571 9.84799 264.235 15.0107 264.235 22.008V25.592C264.235 30.2 263.467 33.9547 261.931 36.856C260.48 39.7573 258.219 41.848 255.147 43.128V43.384C262.144 45.7733 265.643 52.0027 265.643 62.072V69.752C265.643 76.664 263.808 81.9547 260.139 85.624C256.555 89.208 251.264 91 244.267 91H222.123V1.39999ZM241.707 37.88C244.523 37.88 246.614 37.1547 247.979 35.704C249.43 34.2533 250.155 31.8213 250.155 28.408V23.416C250.155 20.1733 249.558 17.8267 248.363 16.376C247.254 14.9253 245.462 14.2 242.987 14.2H236.203V37.88H241.707ZM244.267 78.2C246.742 78.2 248.576 77.56 249.771 76.28C250.966 74.9147 251.563 72.6107 251.563 69.368V61.56C251.563 57.464 250.838 54.648 249.387 53.112C248.022 51.4907 245.718 50.68 242.475 50.68H236.203V78.2H244.267ZM284.801 52.856L267.777 1.39999H282.753L292.353 34.296H292.609L302.209 1.39999H315.905L298.881 52.856V91H284.801V52.856ZM333.756 14.2H319.036V1.39999H362.556V14.2H347.836V91H333.756V14.2ZM369.373 1.39999H407.773V14.2H383.453V37.88H402.781V50.68H383.453V78.2H407.773V91H369.373V1.39999ZM434.427 92.28C427.6 92.28 422.438 90.36 418.939 86.52C415.44 82.5947 413.691 77.0053 413.691 69.752V64.632H427.003V70.776C427.003 76.5787 429.435 79.48 434.299 79.48C436.688 79.48 438.48 78.7973 439.675 77.432C440.955 75.9813 441.595 73.6773 441.595 70.52C441.595 66.7653 440.742 63.48 439.035 60.664C437.328 57.7627 434.171 54.3067 429.563 50.296C423.76 45.176 419.707 40.568 417.403 36.472C415.099 32.2907 413.947 27.5973 413.947 22.392C413.947 15.3093 415.739 9.848 419.323 6.008C422.907 2.08266 428.112 0.119995 434.939 0.119995C441.68 0.119995 446.758 2.08266 450.171 6.008C453.67 9.848 455.419 15.3947 455.419 22.648V26.36H442.107V21.752C442.107 18.68 441.51 16.4613 440.315 15.096C439.12 13.6453 437.371 12.92 435.067 12.92C430.374 12.92 428.027 15.7787 428.027 21.496C428.027 24.7387 428.88 27.768 430.587 30.584C432.379 33.4 435.579 36.8133 440.187 40.824C446.075 45.944 450.128 50.5947 452.347 54.776C454.566 58.9573 455.675 63.864 455.675 69.496C455.675 76.8347 453.84 82.4667 450.171 86.392C446.587 90.3173 441.339 92.28 434.427 92.28Z" fill="white"/>
</svg>
